<svg width="99" height="126" viewBox="0 0 99 126" version="1.1" xmlns="http://www.w3.org/2000/svg" xmlns:xlink="http://www.w3.org/1999/xlink">
<title>Group</title>
<desc>Created using Figma</desc>
<g id="Canvas" transform="translate(152 77)">
<g id="Group">
<g id="Vector">
<use xlink:href="#path0_fill" transform="translate(-133.681 7.13167)" fill="#1085C8"/>
</g>
<g id="Vector">
<use xlink:href="#path1_fill" transform="translate(-151.466 -76.3594)" fill="#1085C8"/>
</g>
</g>
</g>
<defs>
<path id="path0_fill" d="M 57.6347 1.04951e-06C 57.2908 0.137562 56.9469 0.206339 56.5343 0.206339L 6.04946 0.206339C 5.63677 0.206339 5.29287 0.137562 4.94897 1.04951e-06L 0.409465 14.0312C -0.691022 17.3327 0.478245 20.978 3.29824 23.0414L 26.546 39.9614C 29.366 42.0248 33.1489 42.0248 35.9689 39.9614L 59.2167 23.0414C 62.0367 20.978 63.206 17.3327 62.1055 14.0312L 57.6347 1.04951e-06Z"/>
<path id="path1_fill" d="M 27.0673 70.2164L 26.1044 73.174L 72.0497 73.174L 71.0868 70.2164C 71.0868 70.1476 71.018 70.0789 71.018 70.0101C 73.4941 66.2272 105.133 17.3243 96.7418 2.12385C 88.7633 -12.3888 70.1926 54.3282 67.1663 65.6081C 66.0658 64.9891 64.8277 64.6452 63.5209 64.6452L 34.7707 64.6452C 33.4639 64.6452 32.1571 64.9891 31.0566 65.5394C 27.9615 54.2594 9.39076 -12.4576 1.41223 2.05507C -6.97897 17.2555 24.66 66.2272 27.1361 69.9413C 27.1361 70.0101 27.1361 70.0789 27.0673 70.2164Z"/>
</defs>
</svg>
